<?xml version="1.0" encoding="utf-8"?>
<svg xmlns="http://www.w3.org/2000/svg" viewBox="0 0 48 48" fill="#000000"><path d="M 28.361328 6.0097656 C 28.229609 6.0225781 28.098203 6.0521094 27.970703 6.0996094 C 21.270703 8.6296094 20.480156 12.190781 19.910156 14.800781 C 19.870156 14.980781 19.840781 15.150781 19.800781 15.300781 C 19.860781 15.330781 19.910703 15.360391 19.970703 15.400391 L 20 15.410156 L 20.039062 15.439453 C 20.719062 15.889453 26.379453 18.580469 34.939453 19.730469 C 34.879453 16.700469 33.340703 14.789375 31.970703 13.109375 C 30.560703 11.349375 29.530703 10.089297 29.970703 7.7792969 C 30.080703 7.2492969 29.880703 6.6996094 29.470703 6.3496094 C 29.155703 6.0871094 28.756484 5.9713281 28.361328 6.0097656 z M 15.458984 17.046875 C 13.829199 17.070508 12.244531 17.908984 11.269531 19.490234 C 10.479531 20.840234 9.9000781 22.580781 10.080078 24.300781 C 11.240078 24.410781 12.370391 24.769609 13.400391 25.349609 L 13.75 25.550781 L 13.789062 25.599609 C 14.539062 25.999609 17.900234 27.619141 23.490234 27.619141 C 28.730234 27.619141 32.849844 26.259219 34.839844 25.449219 L 34.900391 25.419922 C 35.690391 25.019922 36.540391 24.749141 37.400391 24.619141 C 36.870391 23.559141 36.049609 22.890937 34.599609 22.710938 C 25.429609 21.490938 19.310312 18.600391 18.320312 17.900391 C 17.431562 17.311641 16.436855 17.032695 15.458984 17.046875 z M 9.4023438 27.257812 C 7.5428657 27.229501 5.7409063 28.216687 4.7460938 29.9375 C 3.2970938 32.5255 4.1500312 35.802531 6.7070312 37.269531 C 7.3840312 37.614531 13.520156 41 23.660156 41 C 33.800156 41 40.653937 37.700531 41.335938 37.269531 C 43.892938 35.802531 44.743875 32.733469 43.296875 30.230469 C 41.847875 27.642469 38.695625 26.780156 36.140625 28.160156 C 36.055625 28.160156 30.815281 30.621094 23.488281 30.621094 C 16.245281 30.621094 12.075297 28.124172 11.904297 27.951172 C 11.105234 27.492734 10.247561 27.270681 9.4023438 27.257812 z" fill="#000000"/></svg>
